<svg width="48" height="48" viewBox="0 0 48 48" fill="none" xmlns="http://www.w3.org/2000/svg">
<circle cx="24" cy="24" r="24" fill="#BDFF6A"/>
<path fill-rule="evenodd" clip-rule="evenodd" d="M23.903 8.55078C25.2982 8.55078 26.4293 9.68185 26.4293 11.0771V21.1824C26.4293 22.5776 25.2982 23.7087 23.903 23.7087C22.5077 23.7087 21.3767 22.5776 21.3767 21.1824V11.0771C21.3767 9.68185 22.5077 8.55078 23.903 8.55078Z" fill="black"/>
<path fill-rule="evenodd" clip-rule="evenodd" d="M16.7127 13.7977C18.1079 13.7977 19.239 14.9288 19.239 16.3241V26.4293C19.239 27.8246 18.1079 28.9556 16.7127 28.9556C15.3174 28.9556 14.1864 27.8246 14.1864 26.4293V16.3241C14.1864 14.9288 15.3174 13.7977 16.7127 13.7977Z" fill="black"/>
<path fill-rule="evenodd" clip-rule="evenodd" d="M9.52241 19.0447C10.9177 19.0447 12.0487 20.1758 12.0487 21.571V31.6763C12.0487 33.0715 10.9177 34.2026 9.52241 34.2026C8.12716 34.2026 6.99609 33.0715 6.99609 31.6763L6.99609 21.571C6.99609 20.1758 8.12716 19.0447 9.52241 19.0447Z" fill="black"/>
<path fill-rule="evenodd" clip-rule="evenodd" d="M31.0933 13.7977C29.698 13.7977 28.5669 14.9288 28.5669 16.3241V26.4293C28.5669 27.8246 29.698 28.9556 31.0933 28.9556C32.4885 28.9556 33.6196 27.8246 33.6196 26.4293V16.3241C33.6196 14.9288 32.4885 13.7977 31.0933 13.7977Z" fill="black"/>
<path fill-rule="evenodd" clip-rule="evenodd" d="M38.2835 19.0447C36.8883 19.0447 35.7572 20.1758 35.7572 21.571V31.6763C35.7572 33.0715 36.8883 34.2026 38.2835 34.2026C39.6788 34.2026 40.8099 33.0715 40.8099 31.6763V21.571C40.8099 20.1758 39.6788 19.0447 38.2835 19.0447Z" fill="black"/>
</svg>
