<?xml version="1.0" standalone="no"?>
<!DOCTYPE svg PUBLIC "-//W3C//DTD SVG 20010904//EN"
 "http://www.w3.org/TR/2001/REC-SVG-20010904/DTD/svg10.dtd">
<svg version="1.0" xmlns="http://www.w3.org/2000/svg"
 width="256.000000pt" height="256.000000pt" viewBox="0 0 256.000000 256.000000"
 preserveAspectRatio="xMidYMid meet">

<g transform="translate(0.000000,256.000000) scale(0.100000,-0.100000)"
fill="#000000" stroke="none">
<path d="M1210 2087 c-13 -7 -35 -28 -47 -46 -23 -33 -23 -38 -23 -338 0 -330
1 -339 56 -382 19 -15 41 -21 79 -21 38 0 60 6 79 21 55 43 56 53 56 381 0
283 -1 305 -20 335 -34 57 -119 81 -180 50z"/>
<path d="M799 1781 l-39 -39 0 -322 0 -322 39 -39 c34 -34 44 -39 85 -39 64 0
104 23 127 73 17 38 19 68 19 327 0 259 -2 289 -19 327 -23 50 -63 73 -127 73
-41 0 -51 -5 -85 -39z"/>
<path d="M1584 1801 c-60 -37 -66 -70 -62 -401 3 -270 5 -297 22 -323 26 -38
66 -57 122 -57 41 0 51 5 85 39 l39 39 0 322 0 322 -39 39 c-34 35 -44 39 -87
39 -31 0 -61 -7 -80 -19z"/>
<path d="M434 1521 c-62 -38 -65 -57 -62 -394 3 -277 5 -304 22 -330 26 -38
66 -57 122 -57 41 0 51 5 85 39 l39 39 0 322 0 322 -39 39 c-34 35 -44 39 -87
39 -30 0 -61 -7 -80 -19z"/>
<path d="M1949 1501 l-39 -39 0 -322 0 -322 39 -39 c34 -35 44 -39 87 -39 66
0 107 26 128 82 15 38 17 82 14 338 -3 270 -5 297 -22 323 -26 38 -66 57 -122
57 -41 0 -51 -5 -85 -39z"/>
</g>
</svg>
