<svg width="26" height="25" viewBox="0 0 26 25" fill="none" xmlns="http://www.w3.org/2000/svg">
<path d="M11.3987 0.0890528C5.48028 0.732356 0.719833 5.4928 0.0765295 11.2825C-0.566774 17.3296 2.90706 22.7333 8.18215 24.7919C8.56813 24.9206 8.95411 24.6632 8.95411 24.1486V22.09C8.95411 22.09 8.43947 22.2187 7.79617 22.2187C5.99492 22.2187 5.22296 20.6748 5.0943 19.7741C4.96563 19.2595 4.70831 18.8735 4.32233 18.4875C3.93635 18.3589 3.80769 18.3589 3.80769 18.2302C3.80769 17.9729 4.19367 17.9729 4.32233 17.9729C5.0943 17.9729 5.7376 18.8735 5.99492 19.2595C6.63822 20.2888 7.41019 20.5461 7.79617 20.5461C8.31081 20.5461 8.69679 20.4174 8.95411 20.2888C9.08278 19.3882 9.46876 18.4875 10.2407 17.9729C7.28153 17.3296 5.0943 15.657 5.0943 12.8265C5.0943 11.4112 5.7376 9.99592 6.63822 8.96664C6.50956 8.70932 6.3809 8.06601 6.3809 7.16539C6.3809 6.65075 6.3809 5.87878 6.76688 5.10682C6.76688 5.10682 8.56813 5.10682 10.3694 6.77941C11.0127 6.52209 11.9133 6.39343 12.8139 6.39343C13.7146 6.39343 14.6152 6.52209 15.3871 6.77941C17.0597 5.10682 18.9896 5.10682 18.9896 5.10682C19.247 5.87878 19.247 6.65075 19.247 7.16539C19.247 8.19467 19.1183 8.70932 18.9896 8.96664C19.8903 9.99592 20.5336 11.2825 20.5336 12.8265C20.5336 15.657 18.3463 17.3296 15.3871 17.9729C16.1591 18.6162 16.6738 19.7741 16.6738 20.9321V24.2773C16.6738 24.6632 17.0597 25.0492 17.5744 24.9206C22.3348 22.9907 25.68 18.3589 25.68 12.9551C25.68 5.23548 19.1183 -0.811572 11.3987 0.0890528Z" fill="black"/>
</svg>
