<svg width="38" height="22" viewBox="0 0 38 22" fill="none" xmlns="http://www.w3.org/2000/svg">
<path d="M10.9054 0C9.4733 -3.01797e-08 8.0552 0.282077 6.73209 0.830125C5.40899 1.37817 4.20678 2.18146 3.19412 3.19412C2.18146 4.20679 1.37817 5.40899 0.830125 6.73209C0.282077 8.0552 0 9.4733 0 10.9054C0 12.3375 0.282077 13.7556 0.830125 15.0787C1.37817 16.4018 2.18146 17.604 3.19412 18.6167C4.20678 19.6294 5.40899 20.4327 6.73209 20.9807C8.0552 21.5288 9.4733 21.8108 10.9054 21.8108C12.3375 21.8108 13.7556 21.5288 15.0787 20.9807C16.4018 20.4327 17.604 19.6294 18.6167 18.6167C19.6294 17.604 20.4327 16.4018 20.9807 15.0787C21.5288 13.7556 21.8108 12.3375 21.8108 10.9054C21.8108 9.4733 21.5288 8.0552 20.9807 6.73209C20.4327 5.40899 19.6294 4.20679 18.6167 3.19412C17.604 2.18146 16.4018 1.37817 15.0787 0.830125C13.7556 0.282077 12.3375 -3.01797e-08 10.9054 0ZM28.0425 0.778958C26.8029 0.778958 25.6142 1.84585 24.7377 3.74493C23.8612 5.64401 23.3687 8.21971 23.3687 10.9054C23.3687 13.5911 23.8612 16.1668 24.7377 18.0659C25.6142 19.965 26.8029 21.0319 28.0425 21.0319C29.2821 21.0319 30.4708 19.965 31.3473 18.0659C32.2238 16.1668 32.7162 13.5911 32.7162 10.9054C32.7162 8.21971 32.2238 5.64401 31.3473 3.74493C30.4708 1.84585 29.2821 0.778958 28.0425 0.778958ZM35.8321 3.11583C35.4189 3.11583 35.0226 3.93652 34.7305 5.39735C34.4383 6.85818 34.2742 8.83949 34.2742 10.9054C34.2742 12.9713 34.4383 14.9527 34.7305 16.4135C35.0226 17.8743 35.4189 18.695 35.8321 18.695C36.2453 18.695 36.6415 17.8743 36.9337 16.4135C37.2259 14.9527 37.39 12.9713 37.39 10.9054C37.39 8.83949 37.2259 6.85818 36.9337 5.39735C36.6415 3.93652 36.2453 3.11583 35.8321 3.11583Z" fill="black"/>
</svg>
