<svg width="25" height="23" viewBox="0 0 25 23" fill="none" xmlns="http://www.w3.org/2000/svg">
<path d="M23.2159 0.0133233C22.8003 -0.0307496 22.3486 0.0341485 21.8948 0.213565C21.3321 0.434867 12.516 4.14343 4.29788 7.60298L1.5824 8.74583C0.530905 9.17218 0 9.86556 0 10.7995C0 11.4534 0.276744 12.3404 1.59705 12.863L6.18064 14.6994C6.57698 15.8884 7.49755 18.6491 7.72885 19.3831C7.86638 19.8182 8.21377 20.9143 9.09147 21.1706C9.27152 21.2319 9.45939 21.2634 9.65069 21.2634C10.2046 21.2634 10.6034 21.0056 10.7984 20.8556L13.7117 18.3916L17.2501 21.6639C17.3864 21.8027 18.1077 22.5039 19.0767 22.5039C20.2857 22.5039 21.2029 21.4974 21.3941 20.5235C21.4979 19.9896 24.9106 2.85817 24.9106 2.86067C25.2169 1.4866 24.6661 0.773793 24.3123 0.469973C24.0091 0.210537 23.6314 0.0573961 23.2159 0.0133233ZM22.388 2.71415C21.9167 5.0772 19.3471 17.9757 18.9571 19.8348L13.785 15.051L10.2758 18.0229L11.2477 14.2207C11.2477 14.2207 17.9525 7.43398 18.3563 7.03889C18.6814 6.72256 18.7495 6.61168 18.7495 6.50165C18.7495 6.35537 18.6742 6.25013 18.5004 6.25013C18.3441 6.25013 18.1319 6.39989 18.0193 6.46991C16.5898 7.36113 10.5027 10.829 7.50663 12.5333L3.15992 10.7971L5.26978 9.91065C10.6448 7.64762 20.2175 3.61686 22.388 2.71415Z" fill="black"/>
</svg>
