<svg width="27" height="22" viewBox="0 0 27 22" fill="none" xmlns="http://www.w3.org/2000/svg">
<path d="M27 0C25.947 0.62505 23.8343 1.4769 22.5923 1.7226C22.5558 1.73205 22.5261 1.7442 22.491 1.75365C21.3934 0.67095 19.8896 0 18.225 0C14.8703 0 12.15 2.72025 12.15 6.075C12.15 6.25185 12.1351 6.5772 12.15 6.75C7.62345 6.75 4.17825 4.3794 1.70775 1.35C1.4391 2.025 1.32165 3.0915 1.32165 4.0932C1.32165 5.98455 2.7999 7.84215 5.10165 8.9937C4.67775 9.10305 4.21065 9.18135 3.72465 9.18135C2.9403 9.18135 2.11005 8.9748 1.35 8.3484C1.35 8.37135 1.35 8.39295 1.35 8.41725C1.35 11.0606 4.1553 12.8601 6.6501 13.361C6.14385 13.6593 5.12325 13.689 4.6251 13.689C4.2741 13.689 3.0321 13.5284 2.7 13.4663C3.3939 15.633 5.8968 16.8507 8.28225 16.8939C6.41655 18.3573 5.1219 18.9 1.3014 18.9H0C2.4138 20.4471 5.48775 21.6014 8.56845 21.6014C18.5989 21.6014 24.3 13.9563 24.3 6.75C24.3 6.6339 24.2973 6.3909 24.2933 6.14655C24.2933 6.12225 24.3 6.0993 24.3 6.075C24.3 6.03855 24.2892 6.00345 24.2892 5.967C24.2852 5.7834 24.2811 5.61195 24.2771 5.52285C25.3435 4.75335 26.2683 3.7935 27 2.7C26.0212 3.1347 24.971 3.4263 23.868 3.5586C24.9939 2.8836 26.5937 1.2744 27 0Z" fill="black"/>
</svg>
