<svg width="20" height="20" viewBox="0 0 20 20" fill="none" xmlns="http://www.w3.org/2000/svg">
<path d="M10 6C9.71666 6 9.479 6.096 9.287 6.288C9.09566 6.47933 9 6.71667 9 7L9 10.2L8.1 9.3C7.91667 9.11667 7.68333 9.025 7.4 9.025C7.11666 9.025 6.88333 9.11667 6.7 9.3C6.51667 9.48333 6.425 9.71667 6.425 10C6.425 10.2833 6.51667 10.5167 6.7 10.7L9.3 13.3C9.4 13.4 9.50833 13.471 9.625 13.513C9.74167 13.5543 9.86667 13.575 10 13.575C10.1333 13.575 10.2583 13.5543 10.375 13.513C10.4917 13.471 10.6 13.4 10.7 13.3L13.3 10.7C13.4833 10.5167 13.575 10.2833 13.575 10C13.575 9.71667 13.4833 9.48333 13.3 9.3C13.1167 9.11667 12.8833 9.025 12.6 9.025C12.3167 9.025 12.0833 9.11667 11.9 9.3L11 10.2L11 7C11 6.71667 10.904 6.47933 10.712 6.288C10.5207 6.096 10.2833 6 10 6ZM10 8.74228e-07C11.3833 7.53293e-07 12.6833 0.262667 13.9 0.788001C15.1167 1.31267 16.175 2.025 17.075 2.925C17.975 3.825 18.6873 4.88333 19.212 6.1C19.7373 7.31667 20 8.61667 20 10C20 11.3833 19.7373 12.6833 19.212 13.9C18.6873 15.1167 17.975 16.175 17.075 17.075C16.175 17.975 15.1167 18.6877 13.9 19.213C12.6833 19.7377 11.3833 20 10 20C8.61667 20 7.31667 19.7377 6.1 19.213C4.88333 18.6877 3.825 17.975 2.925 17.075C2.025 16.175 1.31267 15.1167 0.788 13.9C0.262666 12.6833 -7.53293e-07 11.3833 -8.74228e-07 10C-9.95163e-07 8.61667 0.262666 7.31667 0.787999 6.1C1.31266 4.88333 2.025 3.825 2.925 2.925C3.825 2.025 4.88333 1.31267 6.1 0.788001C7.31667 0.262668 8.61667 9.95163e-07 10 8.74228e-07Z" fill="black"/>
</svg>
