<svg width="21" height="20" viewBox="0 0 21 20" fill="none" xmlns="http://www.w3.org/2000/svg">
<path d="M10.6816 14C10.965 14 11.2026 13.904 11.3946 13.712C11.586 13.5207 11.6816 13.2833 11.6816 13V9.8L12.5816 10.7C12.765 10.8833 12.9983 10.975 13.2816 10.975C13.565 10.975 13.7983 10.8833 13.9816 10.7C14.165 10.5167 14.2566 10.2833 14.2566 10C14.2566 9.71667 14.165 9.48333 13.9816 9.3L11.3816 6.7C11.2816 6.6 11.1733 6.529 11.0566 6.487C10.94 6.44567 10.815 6.425 10.6816 6.425C10.5483 6.425 10.4233 6.44567 10.3066 6.487C10.19 6.529 10.0816 6.6 9.98164 6.7L7.38164 9.3C7.19831 9.48333 7.10664 9.71667 7.10664 10C7.10664 10.2833 7.19831 10.5167 7.38164 10.7C7.56497 10.8833 7.79831 10.975 8.08164 10.975C8.36497 10.975 8.59831 10.8833 8.78164 10.7L9.68164 9.8V13C9.68164 13.2833 9.77764 13.5207 9.96964 13.712C10.161 13.904 10.3983 14 10.6816 14ZM10.6816 20C9.29831 20 7.99831 19.7373 6.78164 19.212C5.56497 18.6873 4.50664 17.975 3.60664 17.075C2.70664 16.175 1.99431 15.1167 1.46964 13.9C0.944307 12.6833 0.681641 11.3833 0.681641 10C0.681641 8.61667 0.944307 7.31667 1.46964 6.1C1.99431 4.88333 2.70664 3.825 3.60664 2.925C4.50664 2.025 5.56497 1.31233 6.78164 0.787C7.99831 0.262333 9.29831 0 10.6816 0C12.065 0 13.365 0.262333 14.5816 0.787C15.7983 1.31233 16.8566 2.025 17.7566 2.925C18.6566 3.825 19.369 4.88333 19.8936 6.1C20.419 7.31667 20.6816 8.61667 20.6816 10C20.6816 11.3833 20.419 12.6833 19.8936 13.9C19.369 15.1167 18.6566 16.175 17.7566 17.075C16.8566 17.975 15.7983 18.6873 14.5816 19.212C13.365 19.7373 12.065 20 10.6816 20Z" fill="#BDFF6A"/>
</svg>
