<?xml version="1.0" encoding="UTF-8"?>
<svg version="1.1" xmlns="http://www.w3.org/2000/svg" width="512" height="512">
<path d="M0 0 C1.01790619 0.00215515 2.03581238 0.0043103 3.08456421 0.00653076 C17.69363523 0.05620146 32.02575853 0.30709809 46.375 3.3125 C47.34985352 3.51117676 48.32470703 3.70985352 49.32910156 3.91455078 C97.7109774 14.03517194 141.69928269 35.9516877 177.375 70.3125 C178.3640332 71.26068604 178.3640332 71.26068604 179.37304688 72.22802734 C188.86130305 81.37247479 197.6012044 90.66984009 205.375 101.3125 C206.23306152 102.46355017 207.09113451 103.61459177 207.94921875 104.765625 C213.98736829 112.95680614 219.34595521 121.47054105 224.375 130.3125 C224.73948242 130.94430176 225.10396484 131.57610352 225.47949219 132.22705078 C247.08534998 169.97532572 256.85198095 212.74189997 256.6875 255.9375 C256.68534485 256.95540619 256.6831897 257.97331238 256.68096924 259.02206421 C256.63129854 273.63113523 256.38040191 287.96325853 253.375 302.3125 C253.07698486 303.77478027 253.07698486 303.77478027 252.77294922 305.26660156 C242.65232806 353.6484774 220.7358123 397.63678269 186.375 433.3125 C185.74287598 433.97185547 185.11075195 434.63121094 184.45947266 435.31054688 C175.31502521 444.79880305 166.01765991 453.5387044 155.375 461.3125 C154.22394983 462.17056152 153.07290823 463.02863451 151.921875 463.88671875 C143.73224019 469.92427396 135.22961724 475.30707302 126.375 480.3125 C125.66778809 480.7146875 124.96057617 481.116875 124.23193359 481.53125 C101.09654164 494.5566741 75.92537591 503.30551461 49.9375 508.625 C49.21860596 508.77235596 48.49971191 508.91971191 47.7590332 509.0715332 C33.08339502 511.86090125 18.55831162 512.66142619 3.64770508 512.62817383 C0.70811513 512.6250221 -2.2304558 512.64854926 -5.16992188 512.67382812 C-18.54306192 512.71848737 -31.43916711 511.51301542 -44.625 509.3125 C-46.33055054 509.03031616 -46.33055054 509.03031616 -48.07055664 508.74243164 C-91.33802759 500.97044532 -132.38793216 480.98345309 -165.625 452.3125 C-166.37007813 451.67828125 -167.11515625 451.0440625 -167.8828125 450.390625 C-181.38779833 438.57948485 -194.05918743 425.82889772 -204.625 411.3125 C-205.48149066 410.16255169 -206.33826433 409.01281411 -207.1953125 407.86328125 C-213.23534209 399.67315742 -218.61867614 391.16870382 -223.625 382.3125 C-224.0271875 381.60528809 -224.429375 380.89807617 -224.84375 380.16943359 C-237.8691741 357.03404164 -246.61801461 331.86287591 -251.9375 305.875 C-252.08485596 305.15610596 -252.23221191 304.43721191 -252.3840332 303.6965332 C-255.35789088 288.05024391 -255.99800362 272.57681954 -255.9375 256.6875 C-255.93534485 255.66959381 -255.9331897 254.65168762 -255.93096924 253.60293579 C-255.88129854 238.99386477 -255.63040191 224.66174147 -252.625 210.3125 C-252.42632324 209.33764648 -252.22764648 208.36279297 -252.02294922 207.35839844 C-241.90232806 158.9765226 -219.9858123 114.98821731 -185.625 79.3125 C-184.99287598 78.65314453 -184.36075195 77.99378906 -183.70947266 77.31445312 C-174.56502521 67.82619695 -165.26765991 59.0862956 -154.625 51.3125 C-153.47394983 50.45443848 -152.32290823 49.59636549 -151.171875 48.73828125 C-142.98224019 42.70072604 -134.47961724 37.31792698 -125.625 32.3125 C-124.91778809 31.9103125 -124.21057617 31.508125 -123.48193359 31.09375 C-100.34654164 18.0683259 -75.17537591 9.31948539 -49.1875 4 C-48.46860596 3.85264404 -47.74971191 3.70528809 -47.0090332 3.5534668 C-31.36274391 0.57960912 -15.88931954 -0.06050362 0 0 Z " fill="#BCFE69" transform="translate(255.625,-0.3125)"/>
<path d="M0 0 C7.97249294 4.94995441 12.19279381 10.50416268 15.1328125 19.32421875 C15.23027724 20.88546614 15.27200989 22.45050416 15.27998352 24.01477051 C15.28713882 24.97903961 15.29429413 25.94330872 15.30166626 26.9367981 C15.30435516 27.99341644 15.30704407 29.05003479 15.30981445 30.13867188 C15.31967125 31.80994644 15.31967125 31.80994644 15.32972717 33.51498413 C15.34947746 37.21181301 15.3611289 40.90860115 15.37109375 44.60546875 C15.37516928 45.86876511 15.3792448 47.13206146 15.38344383 48.43363953 C15.40216273 54.43455947 15.4167237 60.43545477 15.4250558 66.43639612 C15.43480482 73.34256321 15.46106174 80.24840779 15.50155669 87.15446138 C15.53549992 93.15108211 15.54721291 99.1475479 15.55125999 105.14427185 C15.55611957 107.68625571 15.56771546 110.22823628 15.58629799 112.77015686 C15.61075545 116.33856509 15.60971137 119.90614225 15.6027832 123.47460938 C15.61559326 124.51503387 15.62840332 125.55545837 15.64160156 126.62741089 C15.57138728 136.60598534 13.05076279 145.32646069 6.0703125 152.66796875 C0.03416008 157.8279055 -6.91706358 159.81357683 -14.75 159.73046875 C-22.63037729 158.70345216 -29.72566891 154.49077925 -34.68359375 148.328125 C-38.86712882 141.24511018 -39.3087963 135.62853985 -39.28710938 127.48901367 C-39.29557892 126.3141188 -39.30404846 125.13922394 -39.31277466 123.9287262 C-39.336128 120.05393578 -39.33716707 116.17954291 -39.3359375 112.3046875 C-39.34039345 110.28654752 -39.34655778 108.26841725 -39.35280466 106.25028211 C-39.37200557 99.90729643 -39.37493512 93.56444232 -39.36816406 87.22143555 C-39.36152959 80.6996259 -39.3843706 74.17838273 -39.42147779 67.65668792 C-39.45227213 62.03856968 -39.46352424 56.42063272 -39.45964098 50.80243188 C-39.45758295 47.45517297 -39.46516994 44.10870475 -39.48753357 40.76146507 C-39.50976041 37.02306065 -39.49999964 33.2860087 -39.48242188 29.54760742 C-39.49568512 28.4537674 -39.50894836 27.35992737 -39.52261353 26.23294067 C-39.43545797 18.22281295 -37.62699481 11.53485879 -32.1889267 5.44472027 C-23.25524831 -3.05562738 -11.16822526 -5.70420107 0 0 Z " fill="#010200" transform="translate(343.8671875,149.67578125)"/>
<path d="M0 0 C4.92441762 3.71535344 8.28438508 9.11096774 10.21484375 14.90234375 C10.31273323 16.53141928 10.35406994 18.16417851 10.36201477 19.7961731 C10.36917007 20.80540329 10.37632538 21.81463348 10.38369751 22.85444641 C10.38638641 23.96096054 10.38907532 25.06747467 10.3918457 26.20751953 C10.4017025 27.95676476 10.4017025 27.95676476 10.41175842 29.74134827 C10.43150798 33.61011822 10.44315866 37.4788493 10.453125 41.34765625 C10.45717392 42.68195491 10.46129088 44.01625336 10.46547508 45.35055161 C10.48452574 51.62270194 10.49875458 57.89484054 10.50708705 64.16701424 C10.51684631 71.39297746 10.54313161 78.61863328 10.58358794 85.84448826 C10.61382255 91.43785163 10.62856302 97.03112728 10.63186806 102.62457073 C10.63421112 105.9611775 10.64506648 109.29719598 10.66832924 112.63376236 C10.69271065 116.36302277 10.69175662 120.09148484 10.68481445 123.82080078 C10.70402954 125.4623539 10.70402954 125.4623539 10.72363281 127.1370697 C10.66701079 135.50460496 8.74077728 143.11827984 2.9453125 149.484375 C-3.19695483 154.51742927 -10.40800597 157.88263698 -18.41796875 157.28125 C-27.04863629 155.89977351 -33.01102768 152.61375571 -38.78515625 145.90234375 C-40.46717934 142.99239748 -41.68126442 140.06946199 -42.78515625 136.90234375 C-43.11515625 136.24234375 -43.44515625 135.58234375 -43.78515625 134.90234375 C-43.88600884 133.35161754 -43.92457498 131.79664344 -43.93232727 130.24266052 C-43.93948257 129.26004745 -43.94663788 128.27743439 -43.95401001 127.26504517 C-43.95669891 126.18298798 -43.95938782 125.10093079 -43.9621582 123.98608398 C-43.9687294 122.84932724 -43.9753006 121.7125705 -43.98207092 120.54136658 C-44.0018438 116.76455627 -44.01347718 112.98778584 -44.0234375 109.2109375 C-44.02751303 107.92216265 -44.03158855 106.63338779 -44.03578758 105.30555916 C-44.05451308 99.18504026 -44.06907248 93.06454138 -44.07739955 86.94399971 C-44.08715413 79.89121445 -44.1134234 72.83874453 -44.15390044 65.78607029 C-44.18779366 59.6693121 -44.1995526 53.55268556 -44.20360374 47.4358387 C-44.20847117 44.83917164 -44.22008949 42.24250798 -44.23864174 39.64590263 C-44.26303128 36.00513668 -44.26206751 32.36518816 -44.25512695 28.72436523 C-44.26793701 27.65647766 -44.28074707 26.58859009 -44.29394531 25.48834229 C-44.22636723 15.73333028 -41.27290237 8.76092434 -34.65234375 1.62890625 C-24.51410202 -7.7457859 -11.27287283 -6.9314601 0 0 Z " fill="#010200" transform="translate(194.78515625,152.09765625)"/>
<path d="M0 0 C5.94246699 3.89304476 9.68373918 8.92214001 11.70703125 15.7734375 C12.14869353 19.71906745 12.13752343 23.64139918 12.12695312 27.60864258 C12.13542267 28.78353745 12.14389221 29.95843231 12.15261841 31.16893005 C12.17597175 35.04372047 12.17701082 38.91811334 12.17578125 42.79296875 C12.1802372 44.81110873 12.18640153 46.829239 12.19264841 48.84737414 C12.21184932 55.19035982 12.21477887 61.53321393 12.20800781 67.8762207 C12.20137334 74.39803035 12.22421435 80.91927352 12.26132154 87.44096833 C12.29211588 93.05908657 12.30336799 98.67702353 12.29948473 104.29522437 C12.2974267 107.64248328 12.30501369 110.9889515 12.32737732 114.33619118 C12.34960416 118.0745956 12.33984339 121.81164755 12.32226562 125.55004883 C12.33552887 126.64388885 12.34879211 127.73772888 12.36245728 128.86471558 C12.2751663 136.88728912 10.44053555 143.51355309 5.05977631 149.65293598 C-0.43910139 154.99207335 -7.74369397 157.91885172 -15.35546875 158.2734375 C-23.4172634 157.88233322 -29.72723439 154.17060034 -35.56640625 148.7734375 C-40.32804648 143.25769135 -42.4035968 136.13250344 -42.44013977 128.94917297 C-42.44729507 127.98063889 -42.45445038 127.0121048 -42.46182251 126.01422119 C-42.46451141 124.95805603 -42.46720032 123.90189087 -42.4699707 122.8137207 C-42.4765419 121.69617905 -42.4831131 120.57863739 -42.48988342 119.42723083 C-42.5096052 115.72622612 -42.52127679 112.02526197 -42.53125 108.32421875 C-42.53532553 107.05934317 -42.53940105 105.79446758 -42.54360008 104.49126244 C-42.56230674 98.48607858 -42.57687318 92.48091924 -42.58521205 86.47571403 C-42.59497421 79.56104751 -42.62127114 72.64670197 -42.66171294 65.73214847 C-42.69560626 59.72964544 -42.70736479 53.72729726 -42.71141624 47.72469139 C-42.71628206 45.17826346 -42.72789582 42.63183896 -42.74645424 40.08547401 C-42.77084637 36.51676646 -42.76987988 32.94889266 -42.76293945 29.38012695 C-42.77574951 28.33408295 -42.78855957 27.28803894 -42.80175781 26.21029663 C-42.73381892 16.59613019 -39.74997499 9.54247972 -33.2265625 2.5 C-23.37066795 -6.30061695 -11.1270337 -6.08487337 0 0 Z " fill="#010200" transform="translate(423.29296875,207.2265625)"/>
<path d="M0 0 C7.00540435 4.92372726 11.20460331 10.59024464 13 19 C13.09253959 20.59343534 13.13473991 22.19019062 13.14044189 23.78630066 C13.14615204 24.74642059 13.15186218 25.70654053 13.15774536 26.695755 C13.15886322 27.74256943 13.15998108 28.78938385 13.16113281 29.86791992 C13.16858017 31.52960205 13.16858017 31.52960205 13.17617798 33.22485352 C13.19079439 36.89339823 13.19760131 40.56189968 13.203125 44.23046875 C13.20887754 46.78151958 13.21463526 49.33257041 13.22039795 51.88362122 C13.22956386 56.55193765 13.23586431 61.22024113 13.2388947 65.88856429 C13.24336921 72.74261254 13.26089118 79.59646075 13.2898953 86.45044822 C13.31419359 92.4006074 13.32184281 98.35071726 13.32357025 104.30092812 C13.32659206 106.82501628 13.33460459 109.3491037 13.34775543 111.87315941 C13.36486841 115.4106281 13.36292237 118.94761378 13.35644531 122.48510742 C13.37026749 124.04014732 13.37026749 124.04014732 13.3843689 125.62660217 C13.32774713 135.53152039 11.02853647 143.78235493 4 151 C-2.42794831 155.96590516 -8.78977226 158.60687962 -16.953125 158.44140625 C-24.76683978 157.30941936 -31.81770187 153.17475473 -36.81640625 147.1015625 C-40.94195579 139.77632932 -41.43458622 133.46140762 -41.38818359 125.203125 C-41.39344055 124.04437866 -41.39869751 122.88563232 -41.40411377 121.69177246 C-41.41727159 117.87770947 -41.40859021 114.06406693 -41.3984375 110.25 C-41.40045944 107.59016404 -41.40336769 104.93034063 -41.40713501 102.27050781 C-41.41258032 96.70242799 -41.40543329 91.13446786 -41.39111328 85.56640625 C-41.37478902 79.14520804 -41.38007841 72.72429569 -41.3965925 66.3031044 C-41.41024246 60.77247816 -41.41210995 55.24193756 -41.40427649 49.7112999 C-41.39961916 46.41575421 -41.40011352 43.12037095 -41.40888596 39.8248291 C-41.41652464 36.14864926 -41.40486137 32.47301438 -41.38818359 28.796875 C-41.39425629 27.71611694 -41.40032898 26.63535889 -41.40658569 25.52185059 C-41.33290891 16.73291189 -39.68316472 10.12307855 -33.60546875 3.53515625 C-24.13926918 -5.51646523 -11.07674429 -6.87731926 0 0 Z " fill="#010201" transform="translate(116,207)"/>
<path d="M0 0 C7.50264966 4.63925309 12.10628959 9.97850307 15.12890625 18.31640625 C15.78524189 22.30025995 15.80442908 26.18571506 15.76000977 30.21679688 C15.76716507 31.36286911 15.77432037 32.50894135 15.7816925 33.68974304 C15.79850204 37.4511285 15.77922031 41.21130909 15.7578125 44.97265625 C15.7586419 47.60241799 15.76110396 50.23217967 15.76512146 52.86193848 C15.76962773 58.36268792 15.75386452 63.8630957 15.72583008 69.36376953 C15.69378444 75.6998572 15.6937985 82.03532907 15.71104485 88.37146044 C15.72697524 94.49684854 15.72003412 100.62197736 15.70310783 106.74736023 C15.69794184 109.34038289 15.69838849 111.93342325 15.70465279 114.52644348 C15.71013139 118.15668276 15.68964287 121.78589367 15.66235352 125.41601562 C15.66887939 126.4770903 15.67540527 127.53816498 15.68212891 128.63139343 C15.58091343 136.59040635 13.91000001 143.29657204 9.33984375 149.90234375 C2.97728426 156.10245491 -3.41243003 159.38611657 -12.37109375 159.87890625 C-19.65452646 159.5900449 -25.26704746 156.52418463 -30.74609375 151.87890625 C-35.51675965 146.12604443 -39.10437368 140.84993955 -39.14524841 133.22676086 C-39.15522354 132.22464066 -39.16519867 131.22252045 -39.17547607 130.19003296 C-39.17614075 129.10163116 -39.17680542 128.01322937 -39.17749023 126.8918457 C-39.18581375 125.73675003 -39.19413727 124.58165436 -39.20271301 123.39155579 C-39.2268178 119.57089876 -39.2355866 115.75041252 -39.2421875 111.9296875 C-39.24888754 109.94269546 -39.25558991 107.9557034 -39.26262242 105.96871251 C-39.28407747 99.71879939 -39.29342538 93.46894052 -39.29663086 87.21899414 C-39.30026051 80.79153904 -39.33011776 74.36456309 -39.37203544 67.93725425 C-39.40684439 62.40411779 -39.42218115 56.87113924 -39.42287689 51.33789414 C-39.42366642 48.0398315 -39.43465498 44.74236442 -39.46087456 41.44439125 C-39.48784133 37.75848804 -39.48294563 34.07389217 -39.47045898 30.38793945 C-39.48529327 29.30965881 -39.50012756 28.23137817 -39.51541138 27.12042236 C-39.42820385 18.04368807 -36.67594259 11.22287825 -30.62109375 4.44140625 C-21.91539892 -3.49503537 -10.61999202 -5.45248248 0 0 Z " fill="#000100" transform="translate(266.87109375,93.68359375)"/>
</svg>
