<svg width="182" height="47" viewBox="0 0 182 47" fill="none" xmlns="http://www.w3.org/2000/svg">
<ellipse cx="23.3119" cy="23.3119" rx="23.3119" ry="23.3119" fill="#BDFF6A"/>
<path fill-rule="evenodd" clip-rule="evenodd" d="M23.2171 8.30566C24.5723 8.30566 25.6709 9.4043 25.6709 10.7595V20.5751C25.6709 21.9303 24.5723 23.0289 23.2171 23.0289C21.8618 23.0289 20.7632 21.9303 20.7632 20.5751V10.7595C20.7632 9.4043 21.8618 8.30566 23.2171 8.30566Z" fill="black"/>
<path fill-rule="evenodd" clip-rule="evenodd" d="M16.2329 13.4022C17.5882 13.4022 18.6868 14.5008 18.6868 15.8561V25.6716C18.6868 27.0268 17.5882 28.1255 16.2329 28.1255C14.8777 28.1255 13.779 27.0268 13.779 25.6716V15.8561C13.779 14.5008 14.8777 13.4022 16.2329 13.4022Z" fill="black"/>
<path fill-rule="evenodd" clip-rule="evenodd" d="M9.2488 18.4987C10.604 18.4987 11.7027 19.5973 11.7027 20.9526V30.7681C11.7027 32.1233 10.604 33.222 9.2488 33.222C7.89356 33.222 6.79492 32.1233 6.79492 30.7681L6.79492 20.9526C6.79492 19.5973 7.89356 18.4987 9.2488 18.4987Z" fill="black"/>
<path fill-rule="evenodd" clip-rule="evenodd" d="M30.2012 13.4022C28.8459 13.4022 27.7473 14.5008 27.7473 15.8561V25.6716C27.7473 27.0268 28.8459 28.1255 30.2012 28.1255C31.5564 28.1255 32.6551 27.0268 32.6551 25.6716V15.8561C32.6551 14.5008 31.5564 13.4022 30.2012 13.4022Z" fill="black"/>
<path fill-rule="evenodd" clip-rule="evenodd" d="M37.1853 18.4987C35.8301 18.4987 34.7314 19.5973 34.7314 20.9526V30.7681C34.7314 32.1233 35.8301 33.222 37.1853 33.222C38.5405 33.222 39.6392 32.1233 39.6392 30.7681V20.9526C39.6392 19.5973 38.5405 18.4987 37.1853 18.4987Z" fill="black"/>
<path d="M68.5679 34.9249L67.5729 31.5933H59.304L58.3089 34.9249H50.5547L59.1667 11.2945H67.9846L76.5966 34.9249H68.5679ZM60.8823 26.3039H65.9946L63.5242 17.889H63.387L60.8823 26.3039Z" fill="black"/>
<path d="M99.8018 18.5416C99.8018 19.9842 99.4129 21.2893 98.6352 22.4571C97.8575 23.6249 96.7253 24.4836 95.2384 25.0331L100.488 34.9249H91.9789L87.793 26.3039H84.9795V34.9249H77.3968V11.2945H91.8417C93.5343 11.2945 94.9754 11.6265 96.1648 12.2905C97.3772 12.9317 98.2807 13.8132 98.8754 14.9352C99.493 16.0343 99.8018 17.2364 99.8018 18.5416ZM92.0818 18.8507C92.0818 18.2325 91.876 17.7173 91.4642 17.3051C91.0525 16.893 90.5493 16.6869 89.9546 16.6869H84.9795V21.0489H89.9546C90.5493 21.0489 91.0525 20.8428 91.4642 20.4307C91.876 19.9956 92.0818 19.469 92.0818 18.8507Z" fill="black"/>
<path d="M122.321 34.9249V26.407C122.321 25.3537 122.355 24.2775 122.424 23.1784C122.515 22.0564 122.607 21.1176 122.698 20.362C122.79 19.6064 122.847 19.1255 122.87 18.9194H122.732L118.375 34.9249H112.439L108.047 18.9538H107.91C107.933 19.1599 107.99 19.6407 108.082 20.3963C108.196 21.1291 108.299 22.0564 108.39 23.1784C108.482 24.2775 108.528 25.3537 108.528 26.407V34.9249H101.563V11.2945H112.268L115.836 24.9301H115.973L119.507 11.2945H129.835V34.9249H122.321Z" fill="black"/>
<path d="M144.12 10.8823C148.191 10.8823 151.336 11.9242 153.555 14.0079C155.774 16.0916 156.883 19.1255 156.883 23.1097C156.883 27.0939 155.774 30.1279 153.555 32.2115C151.336 34.2952 148.191 35.3371 144.12 35.3371C140.048 35.3371 136.903 34.3067 134.684 32.2459C132.488 30.1622 131.39 27.1168 131.39 23.1097C131.39 19.1026 132.488 16.0687 134.684 14.0079C136.903 11.9242 140.048 10.8823 144.12 10.8823ZM144.12 16.5495C142.496 16.5495 141.26 17.0418 140.414 18.0264C139.568 19.011 139.145 20.3391 139.145 22.0106V24.2088C139.145 25.8803 139.568 27.2084 140.414 28.193C141.26 29.1776 142.496 29.6699 144.12 29.6699C145.744 29.6699 146.979 29.1776 147.825 28.193C148.694 27.2084 149.129 25.8803 149.129 24.2088V22.0106C149.129 20.3391 148.694 19.011 147.825 18.0264C146.979 17.0418 145.744 16.5495 144.12 16.5495Z" fill="black"/>
<path d="M181.313 18.5416C181.313 19.9842 180.924 21.2893 180.146 22.4571C179.369 23.6249 178.236 24.4836 176.75 25.0331L181.999 34.9249H173.49L169.304 26.3039H166.491V34.9249H158.908V11.2945H173.353C175.045 11.2945 176.487 11.6265 177.676 12.2905C178.888 12.9317 179.792 13.8132 180.387 14.9352C181.004 16.0343 181.313 17.2364 181.313 18.5416ZM173.593 18.8507C173.593 18.2325 173.387 17.7173 172.975 17.3051C172.564 16.893 172.06 16.6869 171.466 16.6869H166.491V21.0489H171.466C172.06 21.0489 172.564 20.8428 172.975 20.4307C173.387 19.9956 173.593 19.469 173.593 18.8507Z" fill="black"/>
</svg>
