<svg width="17" height="15" viewBox="0 0 17 15" fill="none" xmlns="http://www.w3.org/2000/svg">
<path d="M15.4745 0.00888066C15.1976 -0.0204962 14.8965 0.0227617 14.594 0.142352C14.2189 0.289861 8.34258 2.7618 2.86475 5.06777L1.05475 5.82954C0.353875 6.11372 0 6.5759 0 7.19843C0 7.63429 0.184464 8.22549 1.06452 8.57384L4.11971 9.79787C4.38389 10.5904 4.9975 12.4306 5.15167 12.9198C5.24334 13.2098 5.47489 13.9404 6.05993 14.1113C6.17994 14.1521 6.30516 14.1731 6.43267 14.1731C6.80186 14.1731 7.06768 14.0013 7.19769 13.9013L9.13954 12.259L11.4981 14.4401C11.5889 14.5326 12.0697 15 12.7156 15C13.5215 15 14.1328 14.3291 14.2603 13.6799C14.3295 13.3241 16.6042 1.90511 16.6042 1.90678C16.8083 0.990892 16.4412 0.515773 16.2054 0.313261C16.0033 0.140334 15.7515 0.0382574 15.4745 0.00888066ZM14.9228 1.80912C14.6086 3.38421 12.8959 11.9817 12.6358 13.2209L9.18837 10.0323L6.84936 12.0132L7.49719 9.47884C7.49719 9.47884 11.9662 4.95512 12.2354 4.69177C12.4521 4.48093 12.4975 4.40702 12.4975 4.33368C12.4975 4.23617 12.4473 4.16603 12.3315 4.16603C12.2273 4.16603 12.0858 4.26585 12.0108 4.31252C11.058 4.90657 7.00057 7.21807 5.00355 8.3541L2.10624 7.19681L3.51258 6.60595C7.09529 5.09753 13.476 2.41082 14.9228 1.80912Z" fill="black"/>
</svg>
