<svg width="19" height="15" viewBox="0 0 19 15" fill="none" xmlns="http://www.w3.org/2000/svg">
<path d="M18.7488 0C18.0176 0.434035 16.5505 1.02556 15.6881 1.19618C15.6628 1.20274 15.6421 1.21117 15.6178 1.21774C14.8556 0.465908 13.8113 0 12.6555 0C10.3259 0 8.43697 1.88894 8.43697 4.21849C8.43697 4.34129 8.42666 4.56721 8.43697 4.68721C5.29373 4.68721 2.90138 3.04106 1.18586 0.937441C0.999312 1.40616 0.917755 2.14674 0.917755 2.84232C0.917755 4.15568 1.94425 5.4456 3.54259 6.24524C3.24823 6.32117 2.92388 6.37554 2.5864 6.37554C2.04175 6.37554 1.46522 6.23211 0.937441 5.79714C0.937441 5.81307 0.937441 5.82807 0.937441 5.84495C0.937441 7.68046 2.88544 8.93007 4.61784 9.27786C4.26629 9.48503 3.55759 9.50566 3.21167 9.50566C2.96794 9.50566 2.10549 9.3941 1.87488 9.35098C2.35673 10.8556 4.09474 11.7011 5.7512 11.7311C4.45566 12.7473 3.55665 13.1242 0.903693 13.1242H0C1.67614 14.1985 3.8107 15 5.94994 15C12.9151 15 16.8739 9.69127 16.8739 4.68721C16.8739 4.60659 16.8721 4.43785 16.8693 4.26817C16.8693 4.2513 16.8739 4.23536 16.8739 4.21849C16.8739 4.19318 16.8664 4.1688 16.8664 4.14349C16.8636 4.016 16.8608 3.89694 16.858 3.83507C17.5986 3.30073 18.2407 2.63421 18.7488 1.87488C18.0692 2.17674 17.3399 2.37923 16.574 2.4711C17.3558 2.00238 18.4667 0.884945 18.7488 0Z" fill="black"/>
</svg>
